<svg id="svg" xmlns="http://www.w3.org/2000/svg" xmlns:xlink="http://www.w3.org/1999/xlink" width="400" height="400" viewBox="0, 0, 400,400" version="1.1"><g id="svgg"><path id="path0" d="M310.080 122.880 C 309.719 123.241,309.600 128.625,309.600 144.651 C 309.600 170.038,310.500 167.200,302.451 167.200 C 298.403 167.200,296.410 167.350,296.080 167.680 C 295.572 168.188,295.351 193.285,295.843 194.567 C 296.049 195.106,296.990 195.200,302.166 195.200 C 310.475 195.200,309.514 192.554,309.727 216.000 C 309.915 236.621,309.923 236.724,311.853 243.000 C 312.873 246.320,316.830 254.647,317.977 255.890 C 318.338 256.280,319.190 257.410,319.872 258.400 C 325.524 266.615,337.514 274.241,348.960 276.903 C 353.566 277.973,379.839 278.496,380.453 277.528 C 381.135 276.453,380.872 250.929,380.171 250.229 C 379.630 249.688,378.001 249.600,368.471 249.598 C 355.698 249.595,354.029 249.396,349.822 247.372 C 344.273 244.702,339.508 238.704,338.264 232.823 C 337.477 229.099,337.473 196.282,338.260 195.707 C 338.798 195.313,343.578 195.200,359.634 195.200 C 378.123 195.200,380.340 195.133,380.557 194.567 C 380.873 193.745,380.864 169.280,380.548 168.100 L 380.307 167.200 359.979 167.200 C 347.740 167.200,339.244 167.045,338.626 166.810 L 337.600 166.420 337.600 144.653 C 337.600 125.173,337.534 122.860,336.967 122.643 C 335.685 122.151,310.588 122.372,310.080 122.880 M54.000 127.846 C 39.068 131.095,25.354 142.838,21.052 156.059 C 20.740 157.017,20.061 159.060,19.543 160.600 L 18.600 163.400 18.600 220.600 L 18.600 277.800 33.091 277.905 L 47.582 278.010 47.795 277.105 C 47.912 276.607,48.051 251.810,48.104 222.000 L 48.200 167.800 49.324 165.512 C 54.732 154.502,70.205 154.131,76.029 164.872 L 77.400 167.400 77.600 222.600 L 77.800 277.800 92.153 277.905 C 102.286 277.979,106.664 277.879,107.045 277.563 C 107.491 277.193,107.602 267.669,107.692 222.258 L 107.800 167.400 108.925 165.264 C 114.774 154.158,130.371 154.309,135.883 165.526 L 137.000 167.800 137.110 222.459 C 137.200 267.638,137.312 277.195,137.757 277.564 C 138.135 277.878,142.481 277.979,152.447 277.905 L 166.600 277.800 166.600 221.400 C 166.600 161.259,166.686 164.123,164.687 157.600 C 161.802 148.186,153.366 137.808,144.768 133.096 C 141.737 131.435,141.458 131.292,139.914 130.621 C 124.944 124.116,108.910 126.408,94.164 137.162 L 92.528 138.355 91.164 137.236 C 81.089 128.965,66.174 125.197,54.000 127.846 M180.525 167.450 C 180.299 168.040,180.697 169.671,181.587 171.800 C 181.771 172.240,182.282 173.590,182.722 174.800 C 183.162 176.010,184.425 179.340,185.528 182.200 C 191.365 197.334,191.619 198.000,193.765 203.800 C 194.578 206.000,195.438 208.250,195.676 208.800 C 195.913 209.350,196.246 210.160,196.417 210.600 C 198.092 214.927,198.971 217.281,199.478 218.800 C 199.808 219.790,200.241 220.771,200.439 220.980 C 200.638 221.189,200.800 221.763,200.800 222.256 C 200.800 222.749,200.960 223.252,201.156 223.373 C 201.351 223.494,201.635 224.089,201.787 224.696 C 201.938 225.303,202.297 226.340,202.585 227.000 C 202.873 227.660,203.478 229.190,203.928 230.400 C 204.379 231.610,205.768 235.300,207.016 238.600 C 208.264 241.900,210.001 246.490,210.874 248.800 C 211.748 251.110,212.794 253.810,213.198 254.800 C 213.603 255.790,214.504 258.130,215.200 260.000 C 215.896 261.870,216.796 264.210,217.200 265.200 C 218.137 267.498,220.188 272.948,220.858 274.918 C 221.960 278.160,221.153 278.000,236.388 278.000 L 249.946 278.000 250.773 276.838 C 251.228 276.199,251.600 275.503,251.600 275.292 C 251.600 275.080,251.943 274.028,252.363 272.953 C 252.783 271.879,253.703 269.470,254.408 267.600 C 255.113 265.730,256.030 263.437,256.445 262.504 C 256.860 261.572,257.200 260.661,257.200 260.481 C 257.200 260.301,257.901 258.364,258.759 256.177 C 259.616 253.990,261.338 249.500,262.586 246.200 C 264.910 240.055,267.824 232.428,268.395 231.000 C 269.759 227.583,270.400 225.845,270.400 225.559 C 270.400 225.374,270.850 224.240,271.400 223.037 C 271.950 221.835,272.400 220.735,272.400 220.594 C 272.400 220.452,272.832 219.226,273.361 217.868 C 273.889 216.511,276.066 210.810,278.197 205.200 C 280.329 199.590,282.794 193.110,283.676 190.800 C 284.557 188.490,285.821 185.160,286.484 183.400 C 287.147 181.640,287.916 179.660,288.194 179.000 C 288.472 178.340,289.013 176.900,289.398 175.800 C 289.783 174.700,290.332 173.260,290.618 172.600 C 291.685 170.141,292.332 167.889,292.127 167.353 C 291.829 166.578,261.110 166.526,260.511 167.300 C 260.298 167.575,259.464 169.690,258.656 172.000 C 257.849 174.310,256.993 176.740,256.755 177.400 C 256.517 178.060,255.793 180.130,255.147 182.000 C 254.500 183.870,253.813 185.760,253.619 186.200 C 253.425 186.640,253.178 187.360,253.069 187.800 C 252.915 188.420,250.180 196.282,248.686 200.400 C 248.566 200.730,248.199 201.810,247.870 202.800 C 247.541 203.790,246.071 208.020,244.604 212.200 C 243.137 216.380,241.310 221.656,240.544 223.924 C 239.778 226.193,238.802 228.863,238.375 229.858 C 237.949 230.852,237.600 231.999,237.600 232.405 C 237.600 236.232,234.913 233.687,233.583 228.600 C 233.411 227.940,232.527 225.330,231.619 222.800 C 230.711 220.270,229.352 216.394,228.599 214.187 C 227.846 211.980,226.676 208.650,225.999 206.787 C 225.321 204.924,224.062 201.330,223.201 198.800 C 222.339 196.270,221.072 192.670,220.386 190.800 C 219.699 188.930,218.804 186.410,218.397 185.200 C 217.990 183.990,216.550 179.850,215.198 176.000 C 213.845 172.150,212.633 168.640,212.504 168.200 C 212.106 166.838,211.805 166.812,196.087 166.806 C 182.314 166.801,180.750 166.865,180.525 167.450 " stroke="none" fill="#fafbfb" fill-rule="evenodd"></path><path id="path1" d="M92.802 0.293 C 90.933 0.371,89.232 0.608,89.022 0.818 C 88.812 1.028,87.596 1.200,86.320 1.200 C 85.040 1.200,84.000 1.379,84.000 1.600 C 84.000 1.822,82.933 2.000,81.600 2.000 C 80.267 2.000,79.200 2.178,79.200 2.400 C 79.200 2.620,78.491 2.800,77.624 2.800 C 76.757 2.800,75.936 2.980,75.800 3.200 C 75.664 3.420,74.843 3.600,73.976 3.600 C 73.109 3.600,72.400 3.780,72.400 4.000 C 72.400 4.220,71.860 4.400,71.200 4.400 C 70.540 4.400,70.000 4.580,70.000 4.800 C 70.000 5.020,69.280 5.200,68.400 5.200 C 67.520 5.200,66.800 5.380,66.800 5.600 C 66.800 5.820,66.260 6.000,65.600 6.000 C 64.940 6.000,64.400 6.180,64.400 6.400 C 64.400 6.620,63.860 6.800,63.200 6.800 C 62.540 6.800,62.000 6.980,62.000 7.200 C 62.000 7.420,61.561 7.600,61.024 7.600 C 60.487 7.600,59.955 7.749,59.843 7.930 C 59.731 8.112,58.460 8.598,57.020 9.010 C 55.579 9.422,54.400 9.903,54.400 10.079 C 54.400 10.256,54.040 10.400,53.600 10.400 C 53.160 10.400,52.800 10.580,52.800 10.800 C 52.800 11.020,52.440 11.200,52.000 11.200 C 51.560 11.200,51.200 11.380,51.200 11.600 C 51.200 11.820,50.840 12.000,50.400 12.000 C 49.960 12.000,49.600 12.180,49.600 12.400 C 49.600 12.620,49.240 12.800,48.800 12.800 C 48.360 12.800,48.000 12.980,48.000 13.200 C 48.000 13.420,47.640 13.600,47.200 13.600 C 46.760 13.600,46.400 13.780,46.400 14.000 C 46.400 14.220,46.080 14.400,45.688 14.400 C 45.297 14.400,44.717 14.760,44.400 15.200 C 44.083 15.640,43.503 16.000,43.112 16.000 C 42.720 16.000,42.400 16.180,42.400 16.400 C 42.400 16.620,42.170 16.800,41.888 16.800 C 41.607 16.800,41.117 17.160,40.800 17.600 C 40.483 18.040,39.975 18.400,39.672 18.400 C 39.369 18.400,38.617 18.940,38.000 19.600 C 37.383 20.260,36.667 20.800,36.408 20.800 C 36.149 20.800,35.246 21.520,34.400 22.400 C 33.554 23.280,32.642 24.000,32.373 24.000 C 31.734 24.000,24.000 31.734,24.000 32.373 C 24.000 32.642,23.280 33.554,22.400 34.400 C 21.520 35.246,20.800 36.149,20.800 36.408 C 20.800 36.667,20.260 37.383,19.600 38.000 C 18.940 38.617,18.400 39.369,18.400 39.672 C 18.400 39.975,18.040 40.483,17.600 40.800 C 17.160 41.117,16.800 41.607,16.800 41.888 C 16.800 42.170,16.620 42.400,16.400 42.400 C 16.180 42.400,16.000 42.720,16.000 43.112 C 16.000 43.503,15.640 44.083,15.200 44.400 C 14.760 44.717,14.400 45.297,14.400 45.688 C 14.400 46.080,14.220 46.400,14.000 46.400 C 13.780 46.400,13.600 46.760,13.600 47.200 C 13.600 47.640,13.420 48.000,13.200 48.000 C 12.980 48.000,12.800 48.360,12.800 48.800 C 12.800 49.240,12.620 49.600,12.400 49.600 C 12.180 49.600,12.000 49.960,12.000 50.400 C 12.000 50.840,11.820 51.200,11.600 51.200 C 11.380 51.200,11.200 51.560,11.200 52.000 C 11.200 52.440,11.020 52.800,10.800 52.800 C 10.580 52.800,10.400 53.160,10.400 53.600 C 10.400 54.040,10.256 54.400,10.079 54.400 C 9.903 54.400,9.422 55.579,9.010 57.020 C 8.598 58.460,8.112 59.731,7.930 59.843 C 7.749 59.955,7.600 60.487,7.600 61.024 C 7.600 61.561,7.420 62.000,7.200 62.000 C 6.980 62.000,6.800 62.540,6.800 63.200 C 6.800 63.860,6.620 64.400,6.400 64.400 C 6.180 64.400,6.000 64.940,6.000 65.600 C 6.000 66.260,5.820 66.800,5.600 66.800 C 5.380 66.800,5.200 67.520,5.200 68.400 C 5.200 69.280,5.020 70.000,4.800 70.000 C 4.580 70.000,4.400 70.540,4.400 71.200 C 4.400 71.860,4.220 72.400,4.000 72.400 C 3.780 72.400,3.600 73.109,3.600 73.976 C 3.600 74.843,3.420 75.664,3.200 75.800 C 2.980 75.936,2.800 76.757,2.800 77.624 C 2.800 78.491,2.620 79.200,2.400 79.200 C 2.178 79.200,2.000 80.267,2.000 81.600 C 2.000 82.933,1.822 84.000,1.600 84.000 C 1.379 84.000,1.200 85.040,1.200 86.320 C 1.200 87.643,0.985 88.855,0.700 89.140 C -0.035 89.875,-0.035 310.125,0.700 310.860 C 0.985 311.145,1.200 312.357,1.200 313.680 C 1.200 314.960,1.379 316.000,1.600 316.000 C 1.822 316.000,2.000 317.067,2.000 318.400 C 2.000 319.733,2.178 320.800,2.400 320.800 C 2.620 320.800,2.800 321.509,2.800 322.376 C 2.800 323.243,2.980 324.064,3.200 324.200 C 3.420 324.336,3.600 325.157,3.600 326.024 C 3.600 326.891,3.780 327.600,4.000 327.600 C 4.220 327.600,4.400 328.140,4.400 328.800 C 4.400 329.460,4.580 330.000,4.800 330.000 C 5.020 330.000,5.200 330.720,5.200 331.600 C 5.200 332.480,5.380 333.200,5.600 333.200 C 5.820 333.200,6.000 333.740,6.000 334.400 C 6.000 335.060,6.180 335.600,6.400 335.600 C 6.620 335.600,6.800 336.140,6.800 336.800 C 6.800 337.460,6.980 338.000,7.200 338.000 C 7.420 338.000,7.600 338.439,7.600 338.976 C 7.600 339.513,7.749 340.045,7.930 340.157 C 8.112 340.269,8.598 341.540,9.010 342.980 C 9.422 344.421,9.903 345.600,10.079 345.600 C 10.256 345.600,10.400 345.960,10.400 346.400 C 10.400 346.840,10.580 347.200,10.800 347.200 C 11.020 347.200,11.200 347.560,11.200 348.000 C 11.200 348.440,11.380 348.800,11.600 348.800 C 11.820 348.800,12.000 349.160,12.000 349.600 C 12.000 350.040,12.180 350.400,12.400 350.400 C 12.620 350.400,12.800 350.760,12.800 351.200 C 12.800 351.640,12.980 352.000,13.200 352.000 C 13.420 352.000,13.600 352.360,13.600 352.800 C 13.600 353.240,13.780 353.600,14.000 353.600 C 14.220 353.600,14.400 353.920,14.400 354.312 C 14.400 354.703,14.760 355.283,15.200 355.600 C 15.640 355.917,16.000 356.497,16.000 356.888 C 16.000 357.280,16.180 357.600,16.400 357.600 C 16.620 357.600,16.800 357.830,16.800 358.112 C 16.800 358.393,17.160 358.883,17.600 359.200 C 18.040 359.517,18.400 360.025,18.400 360.328 C 18.400 360.631,18.940 361.383,19.600 362.000 C 20.260 362.617,20.800 363.333,20.800 363.592 C 20.800 363.851,21.520 364.754,22.400 365.600 C 23.280 366.446,24.000 367.352,24.000 367.615 C 24.000 368.274,31.674 375.996,32.331 375.998 C 32.624 375.999,33.554 376.720,34.400 377.600 C 35.246 378.480,36.149 379.200,36.408 379.200 C 36.667 379.200,37.383 379.740,38.000 380.400 C 38.617 381.060,39.369 381.600,39.672 381.600 C 39.975 381.600,40.483 381.960,40.800 382.400 C 41.117 382.840,41.607 383.200,41.888 383.200 C 42.170 383.200,42.400 383.380,42.400 383.600 C 42.400 383.820,42.720 384.000,43.112 384.000 C 43.503 384.000,44.083 384.360,44.400 384.800 C 44.717 385.240,45.297 385.600,45.688 385.600 C 46.080 385.600,46.400 385.780,46.400 386.000 C 46.400 386.220,46.760 386.400,47.200 386.400 C 47.640 386.400,48.000 386.580,48.000 386.800 C 48.000 387.020,48.360 387.200,48.800 387.200 C 49.240 387.200,49.600 387.380,49.600 387.600 C 49.600 387.820,49.960 388.000,50.400 388.000 C 50.840 388.000,51.200 388.180,51.200 388.400 C 51.200 388.620,51.560 388.800,52.000 388.800 C 52.440 388.800,52.800 388.980,52.800 389.200 C 52.800 389.420,53.160 389.600,53.600 389.600 C 54.040 389.600,54.400 389.780,54.400 390.000 C 54.400 390.220,54.749 390.400,55.176 390.400 C 55.603 390.400,56.064 390.580,56.200 390.800 C 56.336 391.020,56.842 391.201,57.324 391.202 C 57.806 391.204,58.716 391.474,59.346 391.802 C 59.976 392.131,60.831 392.400,61.246 392.400 C 61.661 392.400,62.000 392.580,62.000 392.800 C 62.000 393.020,62.540 393.200,63.200 393.200 C 63.860 393.200,64.400 393.380,64.400 393.600 C 64.400 393.820,64.940 394.000,65.600 394.000 C 66.260 394.000,66.800 394.180,66.800 394.400 C 66.800 394.620,67.520 394.800,68.400 394.800 C 69.280 394.800,70.000 394.980,70.000 395.200 C 70.000 395.420,70.540 395.600,71.200 395.600 C 71.860 395.600,72.400 395.780,72.400 396.000 C 72.400 396.220,73.109 396.400,73.976 396.400 C 74.843 396.400,75.664 396.580,75.800 396.800 C 75.936 397.020,76.757 397.200,77.624 397.200 C 78.491 397.200,79.200 397.380,79.200 397.600 C 79.200 397.822,80.267 398.000,81.600 398.000 C 82.933 398.000,84.000 398.178,84.000 398.400 C 84.000 398.621,85.040 398.800,86.320 398.800 C 87.643 398.800,88.855 399.015,89.140 399.300 C 89.538 399.698,112.245 399.800,200.000 399.800 C 287.755 399.800,310.462 399.698,310.860 399.300 C 311.145 399.015,312.357 398.800,313.680 398.800 C 314.960 398.800,316.000 398.621,316.000 398.400 C 316.000 398.178,317.067 398.000,318.400 398.000 C 319.733 398.000,320.800 397.822,320.800 397.600 C 320.800 397.380,321.509 397.200,322.376 397.200 C 323.243 397.200,324.064 397.020,324.200 396.800 C 324.336 396.580,325.157 396.400,326.024 396.400 C 326.891 396.400,327.600 396.220,327.600 396.000 C 327.600 395.780,328.140 395.600,328.800 395.600 C 329.460 395.600,330.000 395.420,330.000 395.200 C 330.000 394.980,330.720 394.800,331.600 394.800 C 332.480 394.800,333.200 394.620,333.200 394.400 C 333.200 394.180,333.740 394.000,334.400 394.000 C 335.060 394.000,335.600 393.820,335.600 393.600 C 335.600 393.380,336.140 393.200,336.800 393.200 C 337.460 393.200,338.000 393.020,338.000 392.800 C 338.000 392.580,338.339 392.400,338.754 392.400 C 339.169 392.400,340.024 392.131,340.654 391.802 C 341.284 391.474,342.194 391.204,342.676 391.202 C 343.158 391.201,343.664 391.020,343.800 390.800 C 343.936 390.580,344.397 390.400,344.824 390.400 C 345.251 390.400,345.600 390.220,345.600 390.000 C 345.600 389.780,345.960 389.600,346.400 389.600 C 346.840 389.600,347.200 389.420,347.200 389.200 C 347.200 388.980,347.560 388.800,348.000 388.800 C 348.440 388.800,348.800 388.620,348.800 388.400 C 348.800 388.180,349.160 388.000,349.600 388.000 C 350.040 388.000,350.400 387.820,350.400 387.600 C 350.400 387.380,350.760 387.200,351.200 387.200 C 351.640 387.200,352.000 387.020,352.000 386.800 C 352.000 386.580,352.360 386.400,352.800 386.400 C 353.240 386.400,353.600 386.220,353.600 386.000 C 353.600 385.780,353.920 385.600,354.312 385.600 C 354.703 385.600,355.283 385.240,355.600 384.800 C 355.917 384.360,356.497 384.000,356.888 384.000 C 357.280 384.000,357.600 383.820,357.600 383.600 C 357.600 383.380,357.830 383.200,358.112 383.200 C 358.393 383.200,358.883 382.840,359.200 382.400 C 359.517 381.960,360.025 381.600,360.328 381.600 C 360.631 381.600,361.383 381.060,362.000 380.400 C 362.617 379.740,363.333 379.200,363.592 379.200 C 363.851 379.200,364.754 378.480,365.600 377.600 C 366.446 376.720,367.342 376.000,367.592 376.000 C 368.090 376.000,370.777 373.597,373.356 370.845 C 374.260 369.880,375.225 368.858,375.500 368.574 C 375.775 368.290,376.000 367.850,376.000 367.597 C 376.000 367.344,376.720 366.446,377.600 365.600 C 378.480 364.754,379.200 363.851,379.200 363.592 C 379.200 363.333,379.740 362.617,380.400 362.000 C 381.060 361.383,381.600 360.631,381.600 360.328 C 381.600 360.025,381.960 359.517,382.400 359.200 C 382.840 358.883,383.200 358.393,383.200 358.112 C 383.200 357.830,383.380 357.600,383.600 357.600 C 383.820 357.600,384.000 357.280,384.000 356.888 C 384.000 356.497,384.360 355.917,384.800 355.600 C 385.240 355.283,385.600 354.703,385.600 354.312 C 385.600 353.920,385.780 353.600,386.000 353.600 C 386.220 353.600,386.400 353.240,386.400 352.800 C 386.400 352.360,386.580 352.000,386.800 352.000 C 387.020 352.000,387.200 351.640,387.200 351.200 C 387.200 350.760,387.380 350.400,387.600 350.400 C 387.820 350.400,388.000 350.040,388.000 349.600 C 388.000 349.160,388.180 348.800,388.400 348.800 C 388.620 348.800,388.800 348.440,388.800 348.000 C 388.800 347.560,388.980 347.200,389.200 347.200 C 389.420 347.200,389.600 346.840,389.600 346.400 C 389.600 345.960,389.780 345.600,390.000 345.600 C 390.220 345.600,390.400 345.251,390.400 344.824 C 390.400 344.397,390.580 343.936,390.800 343.800 C 391.020 343.664,391.201 343.158,391.202 342.676 C 391.204 342.194,391.474 341.284,391.802 340.654 C 392.131 340.024,392.400 339.169,392.400 338.754 C 392.400 338.339,392.580 338.000,392.800 338.000 C 393.020 338.000,393.200 337.460,393.200 336.800 C 393.200 336.140,393.380 335.600,393.600 335.600 C 393.820 335.600,394.000 335.060,394.000 334.400 C 394.000 333.740,394.180 333.200,394.400 333.200 C 394.620 333.200,394.800 332.480,394.800 331.600 C 394.800 330.720,394.980 330.000,395.200 330.000 C 395.420 330.000,395.600 329.460,395.600 328.800 C 395.600 328.140,395.780 327.600,396.000 327.600 C 396.220 327.600,396.400 326.891,396.400 326.024 C 396.400 325.157,396.580 324.336,396.800 324.200 C 397.020 324.064,397.200 323.243,397.200 322.376 C 397.200 321.509,397.380 320.800,397.600 320.800 C 397.822 320.800,398.000 319.733,398.000 318.400 C 398.000 317.067,398.178 316.000,398.400 316.000 C 398.621 316.000,398.800 314.960,398.800 313.680 C 398.800 312.357,399.015 311.145,399.300 310.860 C 399.698 310.462,399.800 287.755,399.800 200.000 C 399.800 112.245,399.698 89.538,399.300 89.140 C 399.015 88.855,398.800 87.643,398.800 86.320 C 398.800 85.040,398.621 84.000,398.400 84.000 C 398.178 84.000,398.000 82.933,398.000 81.600 C 398.000 80.267,397.822 79.200,397.600 79.200 C 397.380 79.200,397.200 78.491,397.200 77.624 C 397.200 76.757,397.020 75.936,396.800 75.800 C 396.580 75.664,396.400 74.843,396.400 73.976 C 396.400 73.109,396.220 72.400,396.000 72.400 C 395.780 72.400,395.600 71.860,395.600 71.200 C 395.600 70.540,395.420 70.000,395.200 70.000 C 394.980 70.000,394.800 69.280,394.800 68.400 C 394.800 67.520,394.620 66.800,394.400 66.800 C 394.180 66.800,394.000 66.260,394.000 65.600 C 394.000 64.940,393.820 64.400,393.600 64.400 C 393.380 64.400,393.200 63.860,393.200 63.200 C 393.200 62.540,393.020 62.000,392.800 62.000 C 392.580 62.000,392.400 61.661,392.400 61.246 C 392.400 60.831,392.131 59.976,391.802 59.346 C 391.474 58.716,391.204 57.806,391.202 57.324 C 391.201 56.842,391.020 56.336,390.800 56.200 C 390.580 56.064,390.400 55.603,390.400 55.176 C 390.400 54.749,390.220 54.400,390.000 54.400 C 389.780 54.400,389.600 54.040,389.600 53.600 C 389.600 53.160,389.420 52.800,389.200 52.800 C 388.980 52.800,388.800 52.440,388.800 52.000 C 388.800 51.560,388.620 51.200,388.400 51.200 C 388.180 51.200,388.000 50.840,388.000 50.400 C 388.000 49.960,387.820 49.600,387.600 49.600 C 387.380 49.600,387.200 49.240,387.200 48.800 C 387.200 48.360,387.020 48.000,386.800 48.000 C 386.580 48.000,386.400 47.640,386.400 47.200 C 386.400 46.760,386.220 46.400,386.000 46.400 C 385.780 46.400,385.600 46.080,385.600 45.688 C 385.600 45.297,385.240 44.717,384.800 44.400 C 384.360 44.083,384.000 43.503,384.000 43.112 C 384.000 42.720,383.820 42.400,383.600 42.400 C 383.380 42.400,383.200 42.170,383.200 41.888 C 383.200 41.607,382.840 41.117,382.400 40.800 C 381.960 40.483,381.600 39.975,381.600 39.672 C 381.600 39.369,381.060 38.617,380.400 38.000 C 379.740 37.383,379.200 36.667,379.200 36.408 C 379.200 36.149,378.480 35.246,377.600 34.400 C 376.720 33.554,375.999 32.624,375.998 32.331 C 375.996 31.674,368.274 24.000,367.615 24.000 C 367.352 24.000,366.446 23.280,365.600 22.400 C 364.754 21.520,363.851 20.800,363.592 20.800 C 363.333 20.800,362.617 20.260,362.000 19.600 C 361.383 18.940,360.631 18.400,360.328 18.400 C 360.025 18.400,359.517 18.040,359.200 17.600 C 358.883 17.160,358.393 16.800,358.112 16.800 C 357.830 16.800,357.600 16.620,357.600 16.400 C 357.600 16.180,357.280 16.000,356.888 16.000 C 356.497 16.000,355.917 15.640,355.600 15.200 C 355.283 14.760,354.703 14.400,354.312 14.400 C 353.920 14.400,353.600 14.220,353.600 14.000 C 353.600 13.780,353.240 13.600,352.800 13.600 C 352.360 13.600,352.000 13.420,352.000 13.200 C 352.000 12.980,351.640 12.800,351.200 12.800 C 350.760 12.800,350.400 12.620,350.400 12.400 C 350.400 12.180,350.040 12.000,349.600 12.000 C 349.160 12.000,348.800 11.820,348.800 11.600 C 348.800 11.380,348.440 11.200,348.000 11.200 C 347.560 11.200,347.200 11.020,347.200 10.800 C 347.200 10.580,346.840 10.400,346.400 10.400 C 345.960 10.400,345.600 10.256,345.600 10.079 C 345.600 9.903,344.421 9.422,342.980 9.010 C 341.540 8.598,340.269 8.112,340.157 7.930 C 340.045 7.749,339.513 7.600,338.976 7.600 C 338.439 7.600,338.000 7.420,338.000 7.200 C 338.000 6.980,337.460 6.800,336.800 6.800 C 336.140 6.800,335.600 6.620,335.600 6.400 C 335.600 6.180,335.060 6.000,334.400 6.000 C 333.740 6.000,333.200 5.820,333.200 5.600 C 333.200 5.380,332.480 5.200,331.600 5.200 C 330.720 5.200,330.000 5.020,330.000 4.800 C 330.000 4.580,329.460 4.400,328.800 4.400 C 328.140 4.400,327.600 4.220,327.600 4.000 C 327.600 3.780,326.891 3.600,326.024 3.600 C 325.157 3.600,324.336 3.420,324.200 3.200 C 324.064 2.980,323.243 2.800,322.376 2.800 C 321.509 2.800,320.800 2.620,320.800 2.400 C 320.800 2.178,319.733 2.000,318.400 2.000 C 317.067 2.000,316.000 1.822,316.000 1.600 C 316.000 1.379,314.960 1.200,313.680 1.200 C 312.357 1.200,311.145 0.985,310.860 0.700 C 310.394 0.234,103.443 -0.152,92.802 0.293 M336.967 122.643 C 337.534 122.860,337.600 125.173,337.600 144.653 L 337.600 166.420 338.626 166.810 C 339.244 167.045,347.740 167.200,359.979 167.200 L 380.307 167.200 380.548 168.100 C 380.864 169.280,380.873 193.745,380.557 194.567 C 380.340 195.133,378.123 195.200,359.634 195.200 C 343.578 195.200,338.798 195.313,338.260 195.707 C 337.473 196.282,337.477 229.099,338.264 232.823 C 339.508 238.704,344.273 244.702,349.822 247.372 C 354.029 249.396,355.698 249.595,368.471 249.598 C 378.001 249.600,379.630 249.688,380.171 250.229 C 380.872 250.929,381.135 276.453,380.453 277.528 C 379.839 278.496,353.566 277.973,348.960 276.903 C 343.752 275.692,338.026 273.407,333.622 270.783 C 329.496 268.324,322.145 261.704,319.872 258.400 C 319.190 257.410,318.338 256.280,317.977 255.890 C 316.830 254.647,312.873 246.320,311.853 243.000 C 309.923 236.724,309.915 236.621,309.727 216.000 C 309.514 192.554,310.475 195.200,302.166 195.200 C 296.990 195.200,296.049 195.106,295.843 194.567 C 295.351 193.285,295.572 168.188,296.080 167.680 C 296.410 167.350,298.403 167.200,302.451 167.200 C 310.500 167.200,309.600 170.038,309.600 144.651 C 309.600 128.625,309.719 123.241,310.080 122.880 C 310.588 122.372,335.685 122.151,336.967 122.643 M72.731 128.202 C 80.187 130.047,85.695 132.746,91.164 137.236 L 92.528 138.355 94.164 137.162 C 108.910 126.408,124.944 124.116,139.914 130.621 C 141.458 131.292,141.737 131.435,144.768 133.096 C 153.366 137.808,161.802 148.186,164.687 157.600 C 166.686 164.123,166.600 161.259,166.600 221.400 L 166.600 277.800 152.447 277.905 C 142.481 277.979,138.135 277.878,137.757 277.564 C 137.312 277.195,137.200 267.638,137.110 222.459 L 137.000 167.800 135.883 165.526 C 130.371 154.309,114.774 154.158,108.925 165.264 L 107.800 167.400 107.692 222.258 C 107.602 267.669,107.491 277.193,107.045 277.563 C 106.664 277.879,102.286 277.979,92.153 277.905 L 77.800 277.800 77.600 222.600 L 77.400 167.400 76.029 164.872 C 70.205 154.131,54.732 154.502,49.324 165.512 L 48.200 167.800 48.104 222.000 C 48.051 251.810,47.912 276.607,47.795 277.105 L 47.582 278.010 33.091 277.905 L 18.600 277.800 18.600 220.600 L 18.600 163.400 19.543 160.600 C 20.061 159.060,20.740 157.017,21.052 156.059 C 27.533 136.142,51.848 123.035,72.731 128.202 M211.835 167.106 C 212.074 167.268,212.376 167.760,212.504 168.200 C 212.633 168.640,213.845 172.150,215.198 176.000 C 216.550 179.850,217.990 183.990,218.397 185.200 C 218.804 186.410,219.699 188.930,220.386 190.800 C 221.072 192.670,222.339 196.270,223.201 198.800 C 224.062 201.330,225.321 204.924,225.999 206.787 C 226.676 208.650,227.846 211.980,228.599 214.187 C 229.352 216.394,230.711 220.270,231.619 222.800 C 232.527 225.330,233.411 227.940,233.583 228.600 C 234.913 233.687,237.600 236.232,237.600 232.405 C 237.600 231.999,237.949 230.852,238.375 229.858 C 238.802 228.863,239.778 226.193,240.544 223.924 C 241.310 221.656,243.137 216.380,244.604 212.200 C 246.071 208.020,247.541 203.790,247.870 202.800 C 248.199 201.810,248.566 200.730,248.686 200.400 C 250.180 196.282,252.915 188.420,253.069 187.800 C 253.178 187.360,253.425 186.640,253.619 186.200 C 253.813 185.760,254.500 183.870,255.147 182.000 C 255.793 180.130,256.517 178.060,256.755 177.400 C 256.993 176.740,257.849 174.310,258.656 172.000 C 259.464 169.690,260.298 167.575,260.511 167.300 C 261.110 166.526,291.829 166.578,292.127 167.353 C 292.332 167.889,291.685 170.141,290.618 172.600 C 290.332 173.260,289.783 174.700,289.398 175.800 C 289.013 176.900,288.472 178.340,288.194 179.000 C 287.916 179.660,287.147 181.640,286.484 183.400 C 285.821 185.160,284.557 188.490,283.676 190.800 C 282.794 193.110,280.329 199.590,278.197 205.200 C 276.066 210.810,273.889 216.511,273.361 217.868 C 272.832 219.226,272.400 220.452,272.400 220.594 C 272.400 220.735,271.950 221.835,271.400 223.037 C 270.850 224.240,270.400 225.374,270.400 225.559 C 270.400 225.845,269.759 227.583,268.395 231.000 C 267.824 232.428,264.910 240.055,262.586 246.200 C 261.338 249.500,259.616 253.990,258.759 256.177 C 257.901 258.364,257.200 260.301,257.200 260.481 C 257.200 260.661,256.860 261.572,256.445 262.504 C 256.030 263.437,255.113 265.730,254.408 267.600 C 253.703 269.470,252.783 271.879,252.363 272.953 C 251.943 274.028,251.600 275.080,251.600 275.292 C 251.600 275.503,251.228 276.199,250.773 276.838 L 249.946 278.000 236.388 278.000 C 221.153 278.000,221.960 278.160,220.858 274.918 C 220.188 272.948,218.137 267.498,217.200 265.200 C 216.796 264.210,215.896 261.870,215.200 260.000 C 214.504 258.130,213.603 255.790,213.198 254.800 C 212.794 253.810,211.748 251.110,210.874 248.800 C 210.001 246.490,208.264 241.900,207.016 238.600 C 205.768 235.300,204.379 231.610,203.928 230.400 C 203.478 229.190,202.873 227.660,202.585 227.000 C 202.297 226.340,201.938 225.303,201.787 224.696 C 201.635 224.089,201.351 223.494,201.156 223.373 C 200.960 223.252,200.800 222.749,200.800 222.256 C 200.800 221.763,200.638 221.189,200.439 220.980 C 200.241 220.771,199.808 219.790,199.478 218.800 C 198.971 217.281,198.092 214.927,196.417 210.600 C 196.246 210.160,195.913 209.350,195.676 208.800 C 195.438 208.250,194.578 206.000,193.765 203.800 C 191.619 198.000,191.365 197.334,185.528 182.200 C 184.425 179.340,183.162 176.010,182.722 174.800 C 182.282 173.590,181.771 172.240,181.587 171.800 C 179.335 166.415,178.219 166.799,196.087 166.806 C 204.509 166.809,211.596 166.944,211.835 167.106 " stroke="none" fill="#3c54b4" fill-rule="evenodd"></path></g></svg>